<svg width="143" height="53" viewBox="0 0 143 53" fill="none" xmlns="http://www.w3.org/2000/svg">
<path d="M0 26.2203C0 17.7911 0 13.5765 2.54001 10.895C2.65512 10.7735 2.7735 10.6551 2.89501 10.54C5.57647 8 9.79107 8 18.2203 8C26.6495 8 30.8641 8 33.5455 10.54C33.667 10.6551 33.7854 10.7735 33.9005 10.895C36.4405 13.5765 36.4405 17.7911 36.4405 26.2203C36.4405 34.6495 36.4405 38.8641 33.9005 41.5455C33.7854 41.667 33.667 41.7854 33.5455 41.9005C30.8641 44.4405 26.6495 44.4405 18.2203 44.4405C9.79107 44.4405 5.57647 44.4405 2.89501 41.9005C2.7735 41.7854 2.65512 41.667 2.54001 41.5455C0 38.8641 0 34.6495 0 26.2203Z" fill="#108B67" style="fill:#108B67;fill:color(display-p3 0.0627 0.5451 0.4039);fill-opacity:1;"/>
<path fill-rule="evenodd" clip-rule="evenodd" d="M16.2853 20.9275C16.3923 22.0285 16.4158 21.7581 17.1462 23.5746C17.1462 32.9872 15.4111 26.835 13.9598 23.5705C13.023 21.381 12.2919 18.5964 9.9623 18.4752C8.62245 18.4336 7.41585 19.3693 7.36873 20.5969C7.33764 21.0359 7.39945 21.4737 7.56196 21.8826C8.20064 23.4899 9.85098 27.5187 10.1665 28.2637C10.6693 29.4538 11.1268 30.6262 11.5985 31.773C12.0847 32.9514 12.5856 33.995 14.2945 33.995H14.6401C15.8755 33.995 17.1108 32.8919 17.5825 32.1148C18.3005 30.9285 18.0398 27.8265 18.4185 26.5807C18.5572 27.0811 20.2002 30.9443 20.4669 31.5708C20.9386 32.6879 21.4166 33.9947 23.0369 33.9947H23.5563C24.8787 33.9947 25.9813 32.7985 25.9813 31.5136V31.4304C25.9235 30.7194 23.587 25.2085 23.1835 24.2598C22.6705 23.0558 22.2213 21.9071 21.7121 20.705C21.2093 19.5149 20.6939 18.4453 18.9684 18.4453H18.7075C17.3831 18.4453 16.2845 19.6256 16.2845 20.9264L16.2853 20.9275Z" fill="white" style="fill:white;fill-opacity:1;"/>
<path fill-rule="evenodd" clip-rule="evenodd" d="M26.6609 18.4453C25.303 18.4453 24.2014 19.5447 24.2014 20.8997C24.2014 22.2548 25.303 23.3527 26.6609 23.3527C28.0188 23.3527 29.1189 22.2548 29.1189 20.8997C29.1189 19.5447 28.0188 18.4453 26.6609 18.4453Z" fill="#FFD591" style="fill:#FFD591;fill:color(display-p3 1.0000 0.8353 0.5686);fill-opacity:1;"/>
<path d="M63.8425 11L59.6811 26.9427L56.1931 26.9215L53.6097 15.4852L50.4934 26.9215L47.0054 26.9427L43 11H46.1902L48.7668 23.4141L51.8261 11H55.1439L57.9545 23.3503L60.631 11H63.8425Z" fill="#3D3D3D" style="fill:#3D3D3D;fill:color(display-p3 0.2392 0.2392 0.2392);fill-opacity:1;"/>
<path d="M76.0163 20.5869C76.0163 21.012 75.9879 21.3947 75.9312 21.7348H67.3178C67.3886 22.585 67.6864 23.2511 68.211 23.7329C68.7356 24.2148 69.3807 24.4557 70.1464 24.4557C71.2523 24.4557 72.0392 23.9809 72.5071 23.0314H75.7185C75.3783 24.1652 74.726 25.1005 73.7619 25.8374C72.7978 26.5601 71.6139 26.9215 70.2102 26.9215C69.0759 26.9215 68.055 26.6735 67.1476 26.1775C66.2544 25.6673 65.5525 24.9517 65.0421 24.0305C64.5459 23.1094 64.2977 22.0465 64.2977 20.842C64.2977 19.6232 64.5459 18.5533 65.0421 17.6322C65.5384 16.711 66.2331 16.0025 67.1263 15.5065C68.0196 15.0105 69.0475 14.7625 70.2102 14.7625C71.3303 14.7625 72.3299 15.0034 73.2089 15.4852C74.1022 15.967 74.7899 16.6544 75.2719 17.5471C75.7682 18.4258 76.0163 19.439 76.0163 20.5869ZM72.9325 19.7366C72.9183 18.9714 72.6418 18.362 72.103 17.9085C71.5642 17.4409 70.9049 17.207 70.1251 17.207C69.3878 17.207 68.764 17.4338 68.2535 17.8873C67.7573 18.3266 67.4525 18.943 67.339 19.7366H72.9325Z" fill="#3D3D3D" style="fill:#3D3D3D;fill:color(display-p3 0.2392 0.2392 0.2392);fill-opacity:1;"/>
<path d="M81.0231 16.6756C81.4059 16.1088 81.9305 15.6482 82.5969 15.2939C83.2775 14.9396 84.0502 14.7625 84.9151 14.7625C85.9218 14.7625 86.8292 15.0105 87.6374 15.5065C88.4598 16.0025 89.1049 16.711 89.5728 17.6322C90.0548 18.5391 90.2959 19.5949 90.2959 20.7995C90.2959 22.004 90.0548 23.074 89.5728 24.0093C89.1049 24.9304 88.4598 25.6461 87.6374 26.1562C86.8292 26.6664 85.9218 26.9215 84.9151 26.9215C84.0361 26.9215 83.2633 26.7514 82.5969 26.4113C81.9447 26.057 81.4201 25.6035 81.0231 25.0509V26.9215H78.0456V11H81.0231V16.6756ZM87.2546 20.7995C87.2546 20.0909 87.1057 19.4815 86.808 18.9714C86.5244 18.447 86.1416 18.0502 85.6595 17.781C85.1916 17.5117 84.6812 17.3771 84.1282 17.3771C83.5894 17.3771 83.079 17.5188 82.5969 17.8022C82.129 18.0715 81.7462 18.4683 81.4485 18.9926C81.1649 19.517 81.0231 20.1334 81.0231 20.842C81.0231 21.5505 81.1649 22.167 81.4485 22.6913C81.7462 23.2157 82.129 23.6196 82.5969 23.903C83.079 24.1722 83.5894 24.3069 84.1282 24.3069C84.6812 24.3069 85.1916 24.1652 85.6595 23.8817C86.1416 23.5983 86.5244 23.1944 86.808 22.6701C87.1057 22.1457 87.2546 21.5222 87.2546 20.7995Z" fill="#3D3D3D" style="fill:#3D3D3D;fill:color(display-p3 0.2392 0.2392 0.2392);fill-opacity:1;"/>
<path d="M92.0539 20.842C92.0539 19.6232 92.302 18.5604 92.7982 17.6534C93.2945 16.7323 93.9822 16.0237 94.8612 15.5277C95.7403 15.0176 96.747 14.7625 97.8813 14.7625C99.3416 14.7625 100.547 15.1309 101.497 15.8678C102.461 16.5906 103.106 17.6109 103.432 18.9289H100.221C100.051 18.4187 99.7599 18.0219 99.3487 17.7385C98.9517 17.4409 98.4555 17.2921 97.86 17.2921C97.0093 17.2921 96.3358 17.6038 95.8395 18.2274C95.3433 18.8367 95.0952 19.7083 95.0952 20.842C95.0952 21.9615 95.3433 22.833 95.8395 23.4566C96.3358 24.066 97.0093 24.3706 97.86 24.3706C99.0652 24.3706 99.8521 23.8321 100.221 22.7551H103.432C103.106 24.0305 102.461 25.0438 101.497 25.7949C100.533 26.5459 99.3275 26.9215 97.8813 26.9215C96.747 26.9215 95.7403 26.6735 94.8612 26.1775C93.9822 25.6673 93.2945 24.9587 92.7982 24.0518C92.302 23.1306 92.0539 22.0607 92.0539 20.842Z" fill="#3D3D3D" style="fill:#3D3D3D;fill:color(display-p3 0.2392 0.2392 0.2392);fill-opacity:1;"/>
<path d="M104.812 20.7995C104.812 19.6091 105.046 18.5533 105.514 17.6322C105.996 16.711 106.641 16.0025 107.449 15.5065C108.271 15.0105 109.186 14.7625 110.193 14.7625C111.072 14.7625 111.837 14.9396 112.489 15.2939C113.156 15.6482 113.688 16.0946 114.085 16.6331V14.9538H117.083V26.9215H114.085V25.0083C113.702 25.561 113.17 26.0216 112.489 26.39C111.823 26.7443 111.05 26.9215 110.171 26.9215C109.179 26.9215 108.271 26.6664 107.449 26.1562C106.641 25.6461 105.996 24.9304 105.514 24.0093C105.046 23.074 104.812 22.004 104.812 20.7995ZM114.085 20.842C114.085 20.1192 113.943 19.5028 113.659 18.9926C113.376 18.4683 112.993 18.0715 112.511 17.8022C112.029 17.5188 111.511 17.3771 110.958 17.3771C110.405 17.3771 109.895 17.5117 109.427 17.781C108.959 18.0502 108.576 18.447 108.278 18.9714C107.995 19.4815 107.853 20.0909 107.853 20.7995C107.853 21.508 107.995 22.1316 108.278 22.6701C108.576 23.1944 108.959 23.5983 109.427 23.8817C109.909 24.1652 110.419 24.3069 110.958 24.3069C111.511 24.3069 112.029 24.1722 112.511 23.903C112.993 23.6196 113.376 23.2228 113.659 22.7126C113.943 22.1883 114.085 21.5647 114.085 20.842Z" fill="#3D3D3D" style="fill:#3D3D3D;fill:color(display-p3 0.2392 0.2392 0.2392);fill-opacity:1;"/>
<path d="M126.371 26.9215L122.321 21.7135L122.321 26.9215H119.343L119.343 11H122.321V19.9492L126.277 14.9538H130.147L124.958 20.8632L130.242 26.9215H126.371Z" fill="#3D3D3D" style="fill:#3D3D3D;fill:color(display-p3 0.2392 0.2392 0.2392);fill-opacity:1;"/>
<path d="M143.004 20.5869C143.004 21.012 142.976 21.3947 142.919 21.7348H134.306C134.377 22.585 134.675 23.2511 135.199 23.7329C135.724 24.2148 136.369 24.4557 137.134 24.4557C138.24 24.4557 139.027 23.9809 139.495 23.0314H142.707C142.366 24.1652 141.714 25.1005 140.75 25.8374C139.786 26.5601 138.602 26.9215 137.198 26.9215C136.064 26.9215 135.043 26.6735 134.136 26.1775C133.242 25.6673 132.541 24.9517 132.03 24.0305C131.534 23.1094 131.286 22.0465 131.286 20.842C131.286 19.6232 131.534 18.5533 132.03 17.6322C132.526 16.711 133.221 16.0025 134.114 15.5065C135.008 15.0105 136.036 14.7625 137.198 14.7625C138.318 14.7625 139.318 15.0034 140.197 15.4852C141.09 15.967 141.778 16.6544 142.26 17.5471C142.756 18.4258 143.004 19.439 143.004 20.5869ZM139.921 19.7366C139.906 18.9714 139.63 18.362 139.091 17.9085C138.552 17.4409 137.893 17.207 137.113 17.207C136.376 17.207 135.752 17.4338 135.242 17.8873C134.745 18.3266 134.441 18.943 134.327 19.7366H139.921Z" fill="#3D3D3D" style="fill:#3D3D3D;fill:color(display-p3 0.2392 0.2392 0.2392);fill-opacity:1;"/>
<path d="M47.2773 34.6716C48.0749 34.6716 48.764 34.822 49.3447 35.1228C49.9324 35.4166 50.3802 35.8398 50.688 36.3924C51.0029 36.945 51.1603 37.5956 51.1603 38.3441C51.1603 39.0926 51.0029 39.7432 50.688 40.2958C50.3802 40.8414 49.9324 41.2612 49.3447 41.555C48.764 41.8418 48.0749 41.9852 47.2773 41.9852H45V34.6716H47.2773ZM47.2773 41.1982C48.2218 41.1982 48.9424 40.9499 49.4392 40.4532C49.9359 39.9495 50.1843 39.2465 50.1843 38.3441C50.1843 37.4347 49.9324 36.7247 49.4287 36.214C48.9319 35.7034 48.2148 35.448 47.2773 35.448H45.955V41.1982H47.2773Z" fill="#13775A" style="fill:#13775A;fill:color(display-p3 0.0745 0.4667 0.3529);fill-opacity:1;"/>
<path d="M57.6672 38.8897C57.6672 39.0716 57.6567 39.264 57.6357 39.4669H53.0391C53.0741 40.0335 53.2665 40.4777 53.6163 40.7995C53.9731 41.1143 54.4034 41.2716 54.9071 41.2716C55.3199 41.2716 55.6628 41.1772 55.9356 40.9883C56.2155 40.7925 56.4114 40.5336 56.5233 40.2119H57.5518C57.3978 40.7645 57.09 41.2157 56.6282 41.5655C56.1665 41.9082 55.5928 42.0796 54.9071 42.0796C54.3614 42.0796 53.8717 41.9572 53.4379 41.7124C53.0111 41.4675 52.6753 41.1212 52.4304 40.6735C52.1856 40.2188 52.0631 39.6942 52.0631 39.0996C52.0631 38.505 52.1821 37.9838 52.4199 37.5361C52.6578 37.0884 52.9901 36.7457 53.4169 36.5078C53.8507 36.263 54.3474 36.1406 54.9071 36.1406C55.4529 36.1406 55.9356 36.2595 56.3554 36.4973C56.7752 36.7352 57.097 37.064 57.3209 37.4837C57.5518 37.8964 57.6672 38.3651 57.6672 38.8897ZM56.6807 38.6904C56.6807 38.3266 56.6003 38.0153 56.4393 37.7565C56.2784 37.4907 56.058 37.2913 55.7782 37.1584C55.5053 37.0185 55.201 36.9485 54.8652 36.9485C54.3824 36.9485 53.9696 37.1024 53.6268 37.4102C53.291 37.718 53.0986 38.1447 53.0496 38.6904H56.6807Z" fill="#13775A" style="fill:#13775A;fill:color(display-p3 0.0745 0.4667 0.3529);fill-opacity:1;"/>
<path d="M60.9637 42.0796C60.5229 42.0796 60.1276 42.0062 59.7778 41.8593C59.428 41.7054 59.1517 41.4955 58.9488 41.2297C58.7459 40.9569 58.6339 40.6456 58.6129 40.2958H59.5994C59.6274 40.5826 59.7603 40.817 59.9982 40.9988C60.2431 41.1807 60.5614 41.2716 60.9532 41.2716C61.317 41.2716 61.6039 41.1912 61.8138 41.0303C62.0237 40.8694 62.1286 40.6666 62.1286 40.4217C62.1286 40.1699 62.0167 39.9845 61.7928 39.8656C61.5689 39.7397 61.2226 39.6173 60.7538 39.4983C60.327 39.3864 59.9772 39.2745 59.7044 39.1626C59.4385 39.0436 59.2076 38.8722 59.0117 38.6484C58.8228 38.4176 58.7284 38.1168 58.7284 37.746C58.7284 37.4522 58.8158 37.1829 58.9907 36.938C59.1656 36.6932 59.414 36.5008 59.7359 36.3609C60.0577 36.214 60.425 36.1406 60.8378 36.1406C61.4744 36.1406 61.9887 36.3015 62.3805 36.6232C62.7723 36.945 62.9822 37.3857 63.0101 37.9454H62.0551C62.0341 37.6446 61.9117 37.4032 61.6878 37.2214C61.4709 37.0395 61.1771 36.9485 60.8063 36.9485C60.4635 36.9485 60.1906 37.022 59.9877 37.1689C59.7848 37.3158 59.6834 37.5082 59.6834 37.746C59.6834 37.9349 59.7428 38.0923 59.8618 38.2182C59.9877 38.3371 60.1416 38.435 60.3235 38.512C60.5124 38.5819 60.7713 38.6624 61.1001 38.7533C61.5129 38.8653 61.8487 38.9772 62.1076 39.0891C62.3665 39.194 62.5869 39.3549 62.7688 39.5718C62.9577 39.7886 63.0556 40.0719 63.0626 40.4217C63.0626 40.7365 62.9752 41.0198 62.8002 41.2716C62.6253 41.5235 62.377 41.7228 62.0551 41.8697C61.7403 42.0097 61.3765 42.0796 60.9637 42.0796Z" fill="#13775A" style="fill:#13775A;fill:color(display-p3 0.0745 0.4667 0.3529);fill-opacity:1;"/>
<path d="M64.904 35.3011C64.7221 35.3011 64.5682 35.2382 64.4422 35.1123C64.3163 34.9863 64.2533 34.8324 64.2533 34.6506C64.2533 34.4687 64.3163 34.3148 64.4422 34.1889C64.5682 34.063 64.7221 34 64.904 34C65.0789 34 65.2258 34.063 65.3448 34.1889C65.4707 34.3148 65.5337 34.4687 65.5337 34.6506C65.5337 34.8324 65.4707 34.9863 65.3448 35.1123C65.2258 35.2382 65.0789 35.3011 64.904 35.3011ZM65.3657 36.235V41.9852H64.4107V36.235H65.3657Z" fill="#13775A" style="fill:#13775A;fill:color(display-p3 0.0745 0.4667 0.3529);fill-opacity:1;"/>
<path d="M69.3651 36.1406C69.8619 36.1406 70.2957 36.249 70.6665 36.4659C71.0443 36.6827 71.3241 36.9555 71.506 37.2843V36.235H72.4715V42.1111C72.4715 42.6357 72.3596 43.1009 72.1357 43.5067C71.9118 43.9194 71.59 44.2412 71.1702 44.472C70.7574 44.7029 70.2747 44.8183 69.722 44.8183C68.9663 44.8183 68.3367 44.6399 67.8329 44.2831C67.3292 43.9264 67.0319 43.4402 66.9409 42.8246H67.8854C67.9904 43.1744 68.2072 43.4542 68.5361 43.6641C68.8649 43.8809 69.2602 43.9893 69.722 43.9893C70.2467 43.9893 70.6735 43.8249 71.0023 43.4962C71.3381 43.1674 71.506 42.7057 71.506 42.1111V40.9044C71.3171 41.2402 71.0373 41.52 70.6665 41.7438C70.2957 41.9677 69.8619 42.0796 69.3651 42.0796C68.8544 42.0796 68.3891 41.9537 67.9694 41.7019C67.5566 41.45 67.2313 41.0968 66.9934 40.6421C66.7555 40.1874 66.6366 39.6697 66.6366 39.0891C66.6366 38.5015 66.7555 37.9873 66.9934 37.5466C67.2313 37.0989 67.5566 36.7527 67.9694 36.5078C68.3891 36.263 68.8544 36.1406 69.3651 36.1406ZM71.506 39.0996C71.506 38.6659 71.4186 38.2881 71.2437 37.9664C71.0687 37.6446 70.8309 37.3997 70.53 37.2318C70.2362 37.057 69.9109 36.9695 69.554 36.9695C69.1972 36.9695 68.8719 37.0535 68.578 37.2214C68.2842 37.3892 68.0498 37.6341 67.8749 37.9559C67.7 38.2776 67.6126 38.6554 67.6126 39.0891C67.6126 39.5298 67.7 39.9146 67.8749 40.2433C68.0498 40.5651 68.2842 40.8135 68.578 40.9883C68.8719 41.1562 69.1972 41.2402 69.554 41.2402C69.9109 41.2402 70.2362 41.1562 70.53 40.9883C70.8309 40.8135 71.0687 40.5651 71.2437 40.2433C71.4186 39.9146 71.506 39.5333 71.506 39.0996Z" fill="#13775A" style="fill:#13775A;fill:color(display-p3 0.0745 0.4667 0.3529);fill-opacity:1;"/>
<path d="M76.8874 36.1301C77.587 36.1301 78.1537 36.3434 78.5875 36.7702C79.0213 37.1899 79.2382 37.7985 79.2382 38.5959V41.9852H78.2937V38.7323C78.2937 38.1587 78.1502 37.7215 77.8634 37.4207C77.5765 37.1129 77.1847 36.959 76.688 36.959C76.1843 36.959 75.782 37.1164 75.4811 37.4312C75.1873 37.746 75.0404 38.2042 75.0404 38.8058V41.9852H74.0854V36.235H75.0404V37.0535C75.2293 36.7597 75.4846 36.5323 75.8065 36.3714C76.1353 36.2105 76.4956 36.1301 76.8874 36.1301Z" fill="#13775A" style="fill:#13775A;fill:color(display-p3 0.0745 0.4667 0.3529);fill-opacity:1;"/>
<path d="M85.9153 42.0586C85.4326 42.0586 84.9988 41.9747 84.614 41.8068C84.2362 41.6319 83.9388 41.3941 83.722 41.0933C83.5051 40.7855 83.3931 40.4322 83.3861 40.0335H84.4041C84.4391 40.3762 84.579 40.6666 84.8239 40.9044C85.0757 41.1352 85.4396 41.2507 85.9153 41.2507C86.3701 41.2507 86.7269 41.1387 86.9857 40.9149C87.2516 40.684 87.3845 40.3902 87.3845 40.0335C87.3845 39.7537 87.3076 39.5263 87.1537 39.3514C86.9997 39.1765 86.8073 39.0436 86.5765 38.9527C86.3456 38.8618 86.0342 38.7638 85.6425 38.6589C85.1597 38.533 84.7714 38.4071 84.4776 38.2811C84.1907 38.1552 83.9423 37.9594 83.7324 37.6935C83.5296 37.4207 83.4281 37.057 83.4281 36.6023C83.4281 36.2035 83.5296 35.8503 83.7324 35.5425C83.9353 35.2347 84.2187 34.9968 84.5825 34.8289C84.9533 34.6611 85.3766 34.5771 85.8523 34.5771C86.538 34.5771 87.0977 34.7485 87.5315 35.0913C87.9722 35.434 88.2206 35.8887 88.2766 36.4554H87.2271C87.1921 36.1755 87.0452 35.9307 86.7864 35.7209C86.5275 35.504 86.1847 35.3956 85.7579 35.3956C85.3591 35.3956 85.0338 35.5005 84.7819 35.7104C84.53 35.9132 84.4041 36.2 84.4041 36.5708C84.4041 36.8366 84.4776 37.0535 84.6245 37.2214C84.7784 37.3892 84.9638 37.5187 85.1807 37.6096C85.4046 37.6935 85.7159 37.7915 86.1147 37.9034C86.5975 38.0363 86.9857 38.1692 87.2796 38.3021C87.5734 38.428 87.8253 38.6274 88.0352 38.9002C88.2451 39.1661 88.35 39.5298 88.35 39.9915C88.35 40.3483 88.2556 40.684 88.0667 40.9988C87.8778 41.3136 87.5979 41.5689 87.2271 41.7648C86.8563 41.9607 86.419 42.0586 85.9153 42.0586Z" fill="#13775A" style="fill:#13775A;fill:color(display-p3 0.0745 0.4667 0.3529);fill-opacity:1;"/>
<path d="M94.7088 36.235L91.2456 44.6924H90.2591L91.3925 41.9222L89.0732 36.235H90.1332L91.9383 40.8939L93.7223 36.235H94.7088Z" fill="#13775A" style="fill:#13775A;fill:color(display-p3 0.0745 0.4667 0.3529);fill-opacity:1;"/>
<path d="M97.7047 42.0796C97.264 42.0796 96.8687 42.0062 96.5189 41.8593C96.169 41.7054 95.8927 41.4955 95.6898 41.2297C95.4869 40.9569 95.375 40.6456 95.354 40.2958H96.3405C96.3684 40.5826 96.5014 40.817 96.7392 40.9988C96.9841 41.1807 97.3025 41.2716 97.6943 41.2716C98.0581 41.2716 98.3449 41.1912 98.5548 41.0303C98.7647 40.8694 98.8696 40.6666 98.8696 40.4217C98.8696 40.1699 98.7577 39.9845 98.5338 39.8656C98.3099 39.7397 97.9636 39.6173 97.4949 39.4983C97.0681 39.3864 96.7183 39.2745 96.4454 39.1626C96.1795 39.0436 95.9487 38.8722 95.7528 38.6484C95.5639 38.4176 95.4694 38.1168 95.4694 37.746C95.4694 37.4522 95.5569 37.1829 95.7318 36.938C95.9067 36.6932 96.1551 36.5008 96.4769 36.3609C96.7987 36.214 97.166 36.1406 97.5788 36.1406C98.2155 36.1406 98.7297 36.3015 99.1215 36.6232C99.5133 36.945 99.7232 37.3857 99.7512 37.9454H98.7962C98.7752 37.6446 98.6527 37.4032 98.4289 37.2214C98.212 37.0395 97.9181 36.9485 97.5473 36.9485C97.2045 36.9485 96.9316 37.022 96.7288 37.1689C96.5259 37.3158 96.4244 37.5082 96.4244 37.746C96.4244 37.9349 96.4839 38.0923 96.6028 38.2182C96.7288 38.3371 96.8827 38.435 97.0646 38.512C97.2535 38.5819 97.5123 38.6624 97.8412 38.7533C98.254 38.8653 98.5898 38.9772 98.8486 39.0891C99.1075 39.194 99.3279 39.3549 99.5098 39.5718C99.6987 39.7886 99.7966 40.0719 99.8036 40.4217C99.8036 40.7365 99.7162 41.0198 99.5413 41.2716C99.3664 41.5235 99.118 41.7228 98.7962 41.8697C98.4813 42.0097 98.1175 42.0796 97.7047 42.0796Z" fill="#13775A" style="fill:#13775A;fill:color(display-p3 0.0745 0.4667 0.3529);fill-opacity:1;"/>
<path d="M102.317 37.022V40.4112C102.317 40.691 102.376 40.8904 102.495 41.0093C102.614 41.1212 102.82 41.1772 103.114 41.1772H103.817V41.9852H102.957C102.425 41.9852 102.026 41.8628 101.76 41.6179C101.495 41.3731 101.362 40.9708 101.362 40.4112V37.022H100.617V36.235H101.362V34.787H102.317V36.235H103.817V37.022H102.317Z" fill="#13775A" style="fill:#13775A;fill:color(display-p3 0.0745 0.4667 0.3529);fill-opacity:1;"/>
<path d="M110.222 38.8897C110.222 39.0716 110.211 39.264 110.19 39.4669H105.594C105.629 40.0335 105.821 40.4777 106.171 40.7995C106.528 41.1143 106.958 41.2716 107.462 41.2716C107.874 41.2716 108.217 41.1772 108.49 40.9883C108.77 40.7925 108.966 40.5336 109.078 40.2119H110.106C109.952 40.7645 109.645 41.2157 109.183 41.5655C108.721 41.9082 108.147 42.0796 107.462 42.0796C106.916 42.0796 106.426 41.9572 105.992 41.7124C105.566 41.4675 105.23 41.1212 104.985 40.6735C104.74 40.2188 104.618 39.6942 104.618 39.0996C104.618 38.505 104.737 37.9838 104.974 37.5361C105.212 37.0884 105.545 36.7457 105.971 36.5078C106.405 36.263 106.902 36.1406 107.462 36.1406C108.007 36.1406 108.49 36.2595 108.91 36.4973C109.33 36.7352 109.652 37.064 109.875 37.4837C110.106 37.8964 110.222 38.3651 110.222 38.8897ZM109.235 38.6904C109.235 38.3266 109.155 38.0153 108.994 37.7565C108.833 37.4907 108.613 37.2913 108.333 37.1584C108.06 37.0185 107.756 36.9485 107.42 36.9485C106.937 36.9485 106.524 37.1024 106.181 37.4102C105.846 37.718 105.653 38.1447 105.604 38.6904H109.235Z" fill="#13775A" style="fill:#13775A;fill:color(display-p3 0.0745 0.4667 0.3529);fill-opacity:1;"/>
<path d="M118.398 36.1301C118.846 36.1301 119.245 36.2245 119.595 36.4134C119.944 36.5953 120.221 36.8716 120.424 37.2423C120.627 37.6131 120.728 38.0643 120.728 38.5959V41.9852H119.783V38.7323C119.783 38.1587 119.64 37.7215 119.353 37.4207C119.073 37.1129 118.692 36.959 118.209 36.959C117.713 36.959 117.317 37.1199 117.023 37.4417C116.73 37.7565 116.583 38.2147 116.583 38.8163V41.9852H115.638V38.7323C115.638 38.1587 115.495 37.7215 115.208 37.4207C114.928 37.1129 114.547 36.959 114.064 36.959C113.567 36.959 113.172 37.1199 112.878 37.4417C112.584 37.7565 112.437 38.2147 112.437 38.8163V41.9852H111.482V36.235H112.437V37.064C112.626 36.7632 112.878 36.5323 113.193 36.3714C113.515 36.2105 113.868 36.1301 114.253 36.1301C114.736 36.1301 115.162 36.2385 115.533 36.4554C115.904 36.6722 116.18 36.9905 116.362 37.4102C116.523 37.0045 116.789 36.6897 117.16 36.4659C117.531 36.242 117.943 36.1301 118.398 36.1301Z" fill="#13775A" style="fill:#13775A;fill:color(display-p3 0.0745 0.4667 0.3529);fill-opacity:1;"/>
</svg>
