<svg width="37" height="37" viewBox="0 0 37 37" fill="none" xmlns="http://www.w3.org/2000/svg">
<path d="M0 18.2203C0 9.79107 0 5.57647 2.54001 2.89501C2.65512 2.7735 2.7735 2.65512 2.89501 2.54001C5.57647 0 9.79107 0 18.2203 0C26.6495 0 30.8641 0 33.5455 2.54001C33.667 2.65512 33.7854 2.7735 33.9005 2.89501C36.4405 5.57647 36.4405 9.79107 36.4405 18.2203C36.4405 26.6495 36.4405 30.8641 33.9005 33.5455C33.7854 33.667 33.667 33.7854 33.5455 33.9005C30.8641 36.4405 26.6495 36.4405 18.2203 36.4405C9.79107 36.4405 5.57647 36.4405 2.89501 33.9005C2.7735 33.7854 2.65512 33.667 2.54001 33.5455C0 30.8641 0 26.6495 0 18.2203Z" fill="#108B67" style="fill:#108B67;fill:color(display-p3 0.0627 0.5451 0.4039);fill-opacity:1;"/>
<path fill-rule="evenodd" clip-rule="evenodd" d="M16.2853 12.9276C16.3923 14.0286 16.4158 13.7582 17.1462 15.5747C17.1462 24.9873 15.4111 18.8351 13.9597 15.5707C13.023 13.3811 12.2918 10.5966 9.96228 10.4753C8.62244 10.4338 7.41583 11.3694 7.36871 12.5971V12.5971C7.33763 13.036 7.39944 13.4738 7.56195 13.8827C8.20063 15.49 9.85096 19.5188 10.1665 20.2639C10.6693 21.4539 11.1268 22.6263 11.5984 23.7731C12.0847 24.9515 12.5855 25.9952 14.2945 25.9952H14.6401C15.8755 25.9952 17.1108 24.892 17.5825 24.115C18.3004 22.9287 18.0398 19.8267 18.4184 18.5809C18.5571 19.0812 20.2002 22.9445 20.4669 23.5709C20.9386 24.688 21.4166 25.9948 23.0369 25.9948H23.5563C24.8787 25.9948 25.9813 24.7987 25.9813 23.5137V23.4305C25.9234 22.7196 23.587 17.2087 23.1835 16.2599C22.6705 15.0559 22.2212 13.9072 21.7121 12.7051C21.2093 11.515 20.6939 10.4454 18.9684 10.4454H18.7075C17.3831 10.4454 16.2845 11.6257 16.2845 12.9265L16.2853 12.9276Z" fill="white" style="fill:white;fill-opacity:1;"/>
<path fill-rule="evenodd" clip-rule="evenodd" d="M26.6609 10.4454C25.303 10.4454 24.2014 11.5448 24.2014 12.8998C24.2014 14.2549 25.303 15.3528 26.6609 15.3528C28.0187 15.3528 29.1189 14.2549 29.1189 12.8998C29.1189 11.5448 28.0187 10.4454 26.6609 10.4454Z" fill="#FFD591" style="fill:#FFD591;fill:color(display-p3 1.0000 0.8353 0.5686);fill-opacity:1;"/>
</svg>
